<?xml version="1.0" encoding="UTF-8"?>
<!--?xml version="1.0" encoding="UTF-8" standalone="no"?-->
<svg width="24" height="24" version="1.1" viewBox="0 0 24 24" xmlns="http://www.w3.org/2000/svg">
 <g>
  <path d="m5 6c-1.6447 0-3 1.3553-3 3v6c0 1.6447 1.3553 3 3 3h13c1.6447 0 3-1.3553 3-3v-6c0-1.6447-1.3553-3-3-3zm0 2h13c0.5713 0 1 0.4287 1 1v6c0 0.5713-0.4287 1-1 1h-13c-0.5713 0-1-0.4287-1-1v-6c0-0.5713 0.4287-1 1-1z" color="#000000" style="-inkscape-stroke:none"/>
  <rect x="20" y="10" width="2" height="4" rx=".5" ry=".5"/>
  <path d="m9.8 8.2 8.5 4.1h-8.5z"/>
  <path d="m13.2 15.8-8.5-4.1h8.5z"/>
 </g>
</svg>
